 <svg version="1.0" xmlns="http://www.w3.org/2000/svg" width="700.000000pt" height="700.000000pt" viewBox="0 0 700.000000 700.000000" preserveAspectRatio="xMidYMid meet">
<metadata>
Created by potrace 1.12, written by Peter Selinger 2001-2015
</metadata>
<g transform="translate(0.000000,700.000000) scale(0.100000,-0.100000)" fill="#000000" stroke="none">
<path d="M0 3500 l0 -3500 3500 0 3500 0 0 3500 0 3500 -3500 0 -3500 0 0
-3500z m5435 2293 c90 -20 167 -55 280 -128 112 -72 145 -102 205 -190 93
-138 197 -337 301 -575 41 -94 76 -160 100 -187 26 -28 45 -64 60 -113 20 -66
25 -73 58 -87 42 -17 114 -90 140 -142 40 -79 111 -449 111 -575 0 -169 -36
-264 -139 -367 -51 -50 -88 -76 -166 -114 -86 -42 -108 -49 -158 -48 -39 1
-57 -3 -54 -10 2 -6 35 -30 73 -53 84 -52 190 -147 266 -240 61 -76 176 -294
202 -386 56 -196 -20 -356 -220 -467 -43 -24 -116 -65 -162 -90 -101 -56 -173
-118 -198 -168 -12 -25 -20 -70 -24 -133 -4 -78 -8 -95 -22 -98 -25 -5 -49 93
-49 197 0 119 29 196 104 278 46 50 45 53 -38 79 -204 63 -579 -7 -898 -167
-187 -94 -279 -181 -369 -349 -29 -54 -36 -79 -40 -147 -7 -99 -40 -179 -88
-213 -17 -12 -59 -31 -92 -41 -54 -17 -96 -19 -409 -19 l-349 0 0 53 c-1 28
-2 291 -3 582 -2 292 -6 536 -11 543 -18 30 -23 3 -22 -136 l1 -147 -192 -3
-191 -2 -4 187 c-2 123 -7 195 -15 209 -25 44 -89 39 -114 -9 -19 -34 -28
-355 -20 -677 8 -331 11 -345 76 -345 36 0 42 4 57 35 15 29 18 62 18 188 l0
152 189 0 c153 0 190 -3 194 -14 3 -8 2 -56 -3 -108 -5 -51 -10 -127 -10 -168
0 -50 -6 -82 -15 -94 -8 -11 -15 -31 -15 -45 0 -18 -18 -42 -61 -84 -122 -115
-226 -143 -438 -116 -99 12 -100 12 -214 97 -163 120 -168 139 -168 667 0 419
7 529 40 594 27 51 145 158 196 175 176 61 353 59 480 -3 33 -17 61 -28 63
-26 2 2 -3 16 -11 32 -20 39 -92 265 -107 336 -10 49 -14 57 -30 52 -42 -13
-215 -22 -245 -12 -45 15 -52 23 -115 130 -69 116 -171 350 -236 545 -61 179
-70 281 -31 363 30 66 178 243 215 258 39 16 97 134 127 256 14 55 25 107 25
115 0 24 47 108 109 195 31 44 77 111 101 150 25 38 74 99 110 135 108 109
288 270 300 270 7 0 38 16 70 35 94 57 268 126 410 163 131 34 223 45 347 40
98 -4 129 -9 184 -31 36 -15 71 -27 79 -27 7 0 51 13 99 29 47 16 97 32 111
34 39 8 168 -2 245 -20z m-3450 -1343 l0 -155 -127 0 c-69 0 -129 -3 -133 -7
-10 -10 -12 -284 -2 -294 4 -4 60 -10 125 -12 l118 -4 1 -146 1 -145 -108 6
c-76 4 -113 2 -123 -6 -23 -19 -29 -78 -21 -218 l7 -129 138 0 c76 0 140 -3
142 -7 3 -5 7 -75 9 -157 l3 -149 -352 -2 -352 -2 -1 780 c0 520 3 784 10 792
8 9 88 12 338 11 l327 -1 0 -155z m-1093 139 c89 -18 191 -73 241 -129 73 -82
92 -140 92 -295 0 -71 -3 -138 -7 -148 -7 -16 -23 -17 -195 -15 l-188 3 -5
146 c-6 166 -12 182 -69 177 -66 -6 -66 -3 -66 -538 0 -535 0 -532 66 -538 26
-2 40 3 55 19 17 19 19 36 19 183 l0 161 -37 3 -38 3 0 115 0 114 234 0 234 0
6 -22 c8 -31 8 -655 -1 -740 l-6 -68 -122 0 c-121 0 -122 0 -133 25 -7 14 -12
35 -12 45 0 27 -18 25 -42 -5 -33 -42 -105 -85 -161 -97 -51 -11 -59 -10 -168
31 -63 23 -132 52 -154 64 -55 31 -100 101 -121 189 -35 146 -28 972 9 1076
54 152 222 249 434 251 45 1 106 -4 135 -10z m2052 -11 c3 -13 4 -84 3 -158
l-2 -135 -117 0 c-64 0 -119 -3 -122 -6 -4 -3 -7 -287 -7 -631 l0 -624 -204
-3 -205 -2 -2 632 -3 632 -120 2 -120 2 -3 144 c-1 78 0 149 2 156 4 10 95 13
450 13 l446 0 4 -22z m-2015 -1762 c6 -7 18 -62 26 -122 8 -60 26 -183 40
-274 14 -91 28 -198 32 -237 6 -72 18 -94 27 -50 3 12 10 74 16 137 15 148 67
537 73 547 4 7 292 7 472 0 l60 -2 2 -786 3 -787 -180 -1 -180 -1 0 520 c0
340 -3 520 -10 520 -5 0 -10 -15 -10 -34 0 -61 -106 -882 -126 -979 l-6 -27
-123 0 -124 0 -11 38 c-6 20 -13 84 -16 142 -3 58 -12 121 -19 140 -7 19 -16
58 -19 85 -4 28 -19 151 -35 275 -16 124 -32 251 -36 283 -3 31 -9 57 -13 57
-4 0 -7 -228 -7 -507 l0 -508 -182 -3 -183 -2 0 788 c0 434 3 792 7 795 3 4
120 7 258 7 201 0 255 -3 264 -14z m1505 -6 c67 0 127 -4 134 -9 17 -10 58
-270 66 -417 3 -60 13 -135 22 -165 9 -29 29 -144 45 -254 27 -189 44 -290 74
-450 8 -38 19 -110 25 -160 6 -49 13 -100 16 -112 l4 -23 -204 0 c-153 0 -207
3 -213 13 -4 6 -12 68 -18 137 l-10 125 -75 0 -75 0 -7 -50 c-4 -27 -10 -84
-13 -125 -4 -42 -10 -82 -15 -89 -5 -10 -35 -15 -97 -16 -48 -2 -139 -6 -200
-10 -135 -10 -133 -12 -110 108 9 45 21 127 26 182 6 55 15 123 20 150 5 28
12 91 16 140 15 216 56 518 86 634 10 41 19 100 19 132 0 32 5 93 10 136 18
134 7 122 113 126 50 2 125 2 166 1 41 -2 128 -4 195 -4z"></path>
<path d="M5095 5765 c-55 -19 -106 -35 -114 -35 -8 0 -44 12 -80 27 -58 23
-83 27 -201 31 -109 3 -154 0 -237 -17 -189 -39 -405 -123 -520 -202 -26 -19
-52 -33 -56 -31 -8 2 -139 -111 -255 -223 -68 -65 -138 -152 -129 -162 3 -3
-32 -55 -79 -117 -89 -117 -144 -213 -144 -253 0 -97 -99 -328 -149 -349 -15
-6 -43 -31 -61 -55 -19 -24 -56 -68 -82 -98 -116 -133 -117 -229 -2 -540 86
-231 224 -513 269 -551 24 -20 170 -24 244 -7 45 11 63 12 66 3 2 -6 18 -67
35 -135 39 -155 80 -263 162 -423 34 -68 80 -162 102 -209 40 -89 71 -138 80
-128 3 3 -17 113 -43 245 -45 220 -87 500 -79 524 2 5 29 -9 61 -33 50 -37 61
-52 89 -117 61 -145 70 -187 75 -330 5 -120 2 -150 -23 -270 -36 -180 -37
-338 -2 -454 13 -44 28 -81 33 -83 6 -2 11 32 12 85 2 114 55 294 118 402 65
111 76 150 82 282 3 65 9 115 13 113 5 -3 19 -44 31 -93 l23 -87 13 55 c8 32
12 101 11 163 -2 59 -1 107 1 107 2 0 44 -11 95 -24 50 -14 157 -34 238 -46
170 -24 146 -27 433 60 280 84 515 185 622 267 l43 33 0 -29 c0 -36 -48 -78
-165 -143 -94 -52 -107 -58 -160 -69 -22 -4 -83 -23 -135 -41 l-95 -33 3 -35
c3 -43 18 -60 52 -60 42 0 140 37 195 74 28 18 86 50 130 70 43 20 93 48 111
61 18 14 37 25 42 25 13 0 -5 -90 -28 -142 -13 -30 -16 -46 -9 -53 24 -22 127
137 174 270 33 91 46 96 64 23 7 -29 26 -84 41 -123 16 -38 36 -97 46 -130 15
-52 18 -57 24 -35 4 14 4 75 2 136 -5 118 8 158 27 87 26 -93 -5 -309 -51
-355 -27 -27 -91 -23 -180 11 -93 36 -208 61 -282 61 -66 0 -279 -33 -391 -61
-241 -60 -404 -138 -510 -244 -122 -122 -165 -232 -165 -422 0 -119 11 -144
31 -71 20 78 153 311 188 333 6 3 0 -25 -13 -62 -29 -85 -43 -166 -56 -313 -6
-63 -15 -137 -21 -164 -10 -43 -16 -50 -50 -65 -47 -19 -49 -33 -9 -61 35 -25
55 -21 120 22 46 30 74 65 118 148 62 117 151 205 287 285 286 169 695 267
922 221 86 -17 148 -39 158 -56 4 -6 -16 -35 -43 -64 -61 -68 -92 -132 -103
-216 -9 -69 -5 -122 13 -182 17 -56 24 -46 20 26 -11 163 47 224 379 406 103
56 180 125 213 192 22 43 26 66 26 133 0 100 -26 184 -105 333 -96 180 -203
300 -369 409 l-98 65 26 27 c23 22 29 24 46 13 42 -26 225 57 320 145 149 137
173 297 99 658 -22 110 -49 219 -59 242 -23 53 -79 123 -97 123 -7 0 -16 6
-19 14 -3 8 -19 18 -34 21 -26 6 -32 15 -56 88 -30 92 -48 124 -73 132 -9 3
-23 22 -30 43 -14 39 -79 186 -137 310 -19 40 -34 74 -34 76 0 6 -134 243
-166 294 -55 86 -113 141 -219 210 -130 85 -186 110 -298 133 -137 28 -194 25
-312 -16z m118 -121 c110 -8 210 -20 225 -25 66 -25 204 -120 275 -188 136
-131 211 -235 381 -525 83 -144 112 -202 103 -208 -6 -4 -31 -10 -55 -14 -53
-8 -68 4 -125 101 -59 100 -208 295 -304 395 -109 114 -209 176 -427 260 -44
17 -89 36 -100 42 -12 7 -30 13 -41 14 -19 2 -161 25 -272 44 -106 18 -329
-31 -643 -142 -296 -104 -591 -285 -811 -497 -49 -47 -89 -84 -89 -82 0 9 99
140 179 238 87 106 196 216 360 362 78 70 89 76 180 103 148 44 355 95 466
113 216 36 321 37 698 9z m-103 -538 c0 -88 68 -294 183 -555 l81 -184 -45
-41 c-51 -46 -135 -91 -191 -101 -58 -11 -46 -28 15 -23 55 4 167 51 215 88
25 20 27 21 40 3 18 -23 102 -190 102 -202 0 -4 -51 -21 -112 -36 -175 -42
-245 -85 -285 -172 -14 -30 -22 -57 -18 -61 4 -4 10 -2 12 4 2 6 10 19 17 29
12 16 14 12 20 -41 9 -82 36 -194 47 -194 12 0 11 14 -6 85 -8 33 -15 89 -15
123 0 59 3 66 31 93 17 16 35 29 39 29 4 0 9 -33 11 -73 3 -57 11 -87 37 -140
51 -103 118 -137 207 -103 81 32 125 105 125 211 0 46 1 48 17 33 10 -10 18
-39 21 -72 3 -36 9 -56 17 -56 7 0 16 -11 19 -24 15 -62 76 -420 82 -487 l6
-75 -51 -46 c-85 -77 -296 -174 -605 -277 l-268 -91 -72 11 c-88 13 -305 76
-451 131 -219 82 -381 170 -480 262 l-48 45 6 224 c6 216 16 294 32 255 11
-27 25 -11 26 30 1 26 5 15 14 -38 21 -126 56 -293 67 -322 18 -48 27 -30 21
42 -4 44 -1 86 7 115 13 45 14 47 44 41 64 -12 175 -18 200 -12 46 11 28 23
-31 19 l-58 -3 50 23 c95 45 131 113 137 254 2 36 6 49 13 42 6 -6 10 -65 10
-145 0 -73 3 -134 7 -134 14 0 23 76 21 168 -1 50 1 92 4 92 4 0 15 -7 25 -17
32 -28 30 -8 -4 43 -40 60 -108 97 -223 120 -44 9 -81 17 -82 18 -1 1 6 29 16
63 20 66 68 162 105 207 l23 30 54 -36 c80 -53 120 -71 131 -60 10 10 -21 45
-97 109 l-50 42 85 86 c47 48 153 144 235 213 249 209 372 320 435 393 33 38
60 74 60 80 0 6 5 7 10 4 6 -3 10 -21 10 -39z m-1760 -360 c0 -21 -55 -146
-66 -150 -19 -7 -18 3 7 60 11 27 24 59 29 72 8 18 30 32 30 18z m2945 -119
c24 -39 45 -94 39 -100 -3 -2 -26 0 -52 5 -57 10 -77 6 -125 -26 -63 -43 -77
-39 -100 27 -10 32 -17 60 -15 62 4 4 206 62 223 64 6 0 19 -14 30 -32z m92
-179 c54 -25 108 -87 128 -147 8 -26 29 -128 45 -226 49 -297 38 -457 -40
-559 -41 -54 -130 -118 -207 -150 -61 -25 -67 -26 -84 -10 -50 45 -145 351
-169 548 -15 117 -8 299 14 372 18 59 100 149 166 182 48 24 80 21 147 -10z
m-3127 -109 c0 -39 14 -152 30 -251 17 -99 29 -182 27 -185 -7 -6 -35 103 -52
202 -22 121 -32 305 -16 305 7 0 11 -24 11 -71z m2790 37 c0 -3 -4 -8 -10 -11
-5 -3 -10 -1 -10 4 0 6 5 11 10 11 6 0 10 -2 10 -4z m-2910 -73 c0 -35 14 -98
96 -440 39 -166 87 -299 155 -434 27 -54 49 -105 49 -114 0 -9 10 -30 21 -47
29 -40 16 -48 -77 -48 -85 0 -99 10 -150 113 -70 138 -225 559 -249 673 -18
89 -13 134 23 189 32 50 113 145 124 145 4 0 8 -17 8 -37z m2858 -74 c-8 -34
-13 -119 -12 -229 1 -161 3 -184 31 -290 17 -64 49 -153 72 -199 47 -92 48
-119 3 -47 -49 77 -102 210 -123 313 -29 140 -24 371 10 456 13 32 25 56 27
54 3 -2 -1 -28 -8 -58z m-448 -279 c24 -24 25 -38 4 -68 -30 -43 -124 -20
-124 31 0 53 80 77 120 37z m-1312 -66 c45 -31 16 -104 -43 -104 -32 0 -65 28
-65 56 0 52 62 81 108 48z m-162 -321 c16 -10 14 -10 -11 -3 -54 15 -65 22
-65 42 0 19 1 19 29 -4 15 -12 37 -28 47 -35z m1360 -772 c-14 -21 -98 -62
-124 -59 -22 2 -14 8 48 35 86 37 83 36 76 24z"></path>
<path d="M4964 4853 c-73 -99 -167 -192 -273 -268 -85 -61 -255 -188 -301
-224 -14 -11 -22 -23 -18 -26 4 -4 44 22 90 57 46 36 115 87 153 113 195 137
302 239 390 373 49 75 19 56 -41 -25z"></path>
<path d="M5070 4902 c0 -25 55 -216 86 -300 27 -71 109 -240 125 -256 22 -23
6 21 -46 127 -54 111 -111 271 -136 381 -12 57 -29 84 -29 48z"></path>
<path d="M5356 4232 c-7 -11 63 -114 82 -120 7 -2 -5 24 -28 59 -48 75 -46 73
-54 61z"></path>
<path d="M4221 4177 c-37 -48 -78 -127 -67 -127 3 0 25 30 49 68 24 37 51 73
60 81 19 15 22 31 7 31 -5 0 -27 -24 -49 -53z"></path>
<path d="M5183 4030 c-34 -17 -67 -37 -73 -46 -23 -27 -1 -27 37 -1 21 14 55
33 76 43 20 10 37 21 37 26 0 13 -14 9 -77 -22z"></path>
<path d="M4230 4022 c0 -5 19 -15 43 -22 23 -7 59 -21 81 -32 27 -14 37 -16
34 -6 -8 26 -158 84 -158 60z"></path>
<path d="M5571 3666 c-22 -27 -126 -64 -198 -71 -40 -4 -73 -11 -73 -16 0 -14
81 -10 140 7 30 9 84 24 118 33 61 17 87 35 76 53 -8 13 -51 9 -63 -6z"></path>
<path d="M5576 3528 c21 -75 28 -213 15 -283 -6 -33 -29 -96 -51 -139 -22 -44
-38 -82 -35 -84 7 -7 64 89 87 148 19 47 22 73 21 180 -1 125 -18 220 -40 227
-8 3 -7 -12 3 -49z"></path>
<path d="M3860 3435 c0 -14 5 -25 10 -25 6 0 10 11 10 25 0 14 -4 25 -10 25
-5 0 -10 -11 -10 -25z"></path>
<path d="M3873 3338 c8 -78 42 -160 88 -212 22 -25 45 -46 51 -46 5 0 -8 20
-30 45 -45 51 -81 137 -89 213 -3 28 -10 52 -16 52 -6 0 -8 -20 -4 -52z"></path>
<path d="M5016 3102 c-9 -15 -115 -34 -154 -28 -47 7 -144 -6 -149 -20 -5 -14
189 -10 245 5 57 16 92 32 92 43 0 10 -27 11 -34 0z"></path>
<path d="M4827 2993 c-15 -15 -5 -23 28 -23 24 0 35 5 35 15 0 15 -50 22 -63
8z"></path>
<path d="M6275 4317 c-49 -15 -66 -48 -91 -168 -18 -87 -15 -184 7 -277 16
-66 74 -190 109 -234 17 -20 30 -41 30 -46 0 -17 27 -21 67 -10 160 43 219
229 148 467 -28 90 -101 229 -138 260 -23 19 -85 23 -132 8z m132 -77 c116
-131 166 -333 118 -481 -22 -67 -48 -97 -93 -105 -32 -6 -39 -3 -68 29 -51 55
-91 211 -101 388 -6 100 -4 109 17 140 47 69 84 77 127 29z"></path>
<path d="M3846 2963 c4 -32 10 -78 13 -103 l6 -45 58 -3 c67 -4 67 -4 32 89
-20 52 -35 73 -64 93 -20 14 -40 26 -44 26 -4 0 -4 -26 -1 -57z"></path>
<path d="M5880 2884 c-61 -124 -127 -210 -153 -201 -18 6 -13 75 8 129 11 26
17 50 14 52 -6 7 -183 -82 -252 -126 -56 -36 -166 -78 -203 -78 -14 0 -34 5
-44 10 -26 14 -44 83 -30 110 6 11 8 20 5 20 -3 0 -71 -20 -153 -44 -221 -67
-225 -67 -286 -58 -31 5 -56 6 -56 2 0 -4 11 -27 25 -52 13 -24 29 -68 35 -98
6 -30 13 -60 15 -67 3 -8 22 -2 57 17 81 44 177 77 332 115 191 46 291 60 417
58 97 -1 118 -5 229 -43 139 -47 183 -49 211 -10 18 24 17 27 -10 121 -16 53
-38 116 -49 140 -12 24 -26 63 -32 87 -6 23 -12 42 -14 42 -2 0 -32 -57 -66
-126z"></path>
<path d="M5623 2961 c-39 -20 -92 -46 -117 -56 -45 -19 -60 -35 -31 -35 21 0
60 19 153 73 75 44 95 59 75 56 -5 0 -40 -18 -80 -38z"></path>
<path d="M4276 2432 c-15 -84 -17 -153 -14 -512 l3 -415 40 2 c91 6 97 41 93
561 -2 224 -7 415 -12 425 -11 23 -26 22 -26 -2 0 -22 -25 -45 -40 -36 -5 3
-10 19 -10 35 0 63 -17 34 -34 -58z"></path>
<path d="M2280 2380 c0 -62 -26 -238 -41 -276 -6 -16 -12 -95 -14 -176 -4
-167 -7 -162 86 -151 45 5 49 8 49 33 0 15 -3 30 -7 34 -4 3 -6 48 -5 99 2 65
-2 100 -12 119 -9 18 -16 80 -21 197 -6 135 -10 171 -21 171 -10 0 -14 -14
-14 -50z"></path>
</g>
</svg>