<?xml version="1.0" standalone="no"?>
<!DOCTYPE svg PUBLIC "-//W3C//DTD SVG 20010904//EN"
 "http://www.w3.org/TR/2001/REC-SVG-20010904/DTD/svg10.dtd">
<svg version="1.0" xmlns="http://www.w3.org/2000/svg"
 width="650.000000pt" height="650.000000pt" viewBox="0 0 650.000000 650.000000"
 preserveAspectRatio="xMidYMid meet">
<metadata>
Created by potrace 1.14, written by Peter Selinger 2001-2017
</metadata>
<g transform="translate(0.000000,650.000000) scale(0.100000,-0.100000)"
fill="#000000" stroke="none">
<path d="M0 3250 l0 -3250 3250 0 3250 0 0 3250 0 3250 -3250 0 -3250 0 0
-3250z m4549 2115 l74 -27 100 32 c94 31 106 32 196 27 164 -11 232 -36 409
-151 78 -50 108 -77 149 -132 91 -123 268 -467 343 -664 7 -19 28 -50 46 -68
22 -22 41 -58 56 -104 20 -63 27 -73 57 -85 49 -21 118 -99 142 -162 11 -30
36 -134 55 -230 31 -156 35 -190 32 -302 -3 -122 -4 -127 -41 -201 -47 -96
-116 -160 -236 -219 -68 -34 -97 -43 -140 -44 -30 0 -56 -5 -57 -10 -2 -6 25
-26 59 -46 149 -88 267 -218 360 -397 105 -203 124 -321 68 -437 -44 -93 -104
-142 -323 -259 -48 -26 -112 -69 -142 -97 -70 -64 -91 -114 -82 -201 6 -66 -3
-95 -26 -85 -13 5 -30 64 -42 147 -8 51 9 154 34 205 11 24 39 63 60 88 22 25
40 47 40 50 0 2 -26 13 -57 23 -80 26 -293 26 -413 1 -136 -29 -296 -85 -414
-144 -201 -100 -275 -167 -359 -323 -27 -52 -35 -80 -40 -142 -6 -92 -31 -152
-80 -195 -66 -58 -103 -63 -469 -63 l-328 0 0 328 c2 702 1 747 -15 768 -15
17 -16 12 -13 -66 1 -47 1 -113 0 -148 l-2 -62 -177 2 -178 3 -6 180 c-3 99
-9 188 -13 198 -6 12 -20 17 -47 17 -57 0 -65 -24 -73 -210 -10 -216 -10 -219
-3 -470 5 -220 14 -285 39 -302 23 -14 54 -9 74 13 16 18 20 42 24 178 l5 156
178 2 c198 3 183 9 177 -72 -1 -16 -6 -84 -10 -150 -4 -69 -15 -140 -25 -166
-29 -81 -108 -148 -218 -186 -66 -23 -81 -25 -177 -19 -143 9 -167 17 -259 87
-98 73 -124 104 -148 171 -16 48 -18 91 -18 488 0 332 3 446 14 480 9 31 33
64 82 116 76 77 105 93 219 118 134 29 249 18 353 -34 47 -23 57 -26 51 -12
-42 97 -102 290 -119 379 0 0 -50 -3 -112 -7 -62 -5 -125 -5 -140 -1 -50 13
-159 206 -256 451 -122 312 -142 435 -85 528 42 69 160 207 191 223 27 14 47
45 89 134 8 17 22 66 33 110 10 44 22 97 27 117 5 21 29 68 55 105 25 37 76
113 113 168 37 55 91 125 121 155 89 90 267 250 278 250 6 0 28 11 49 24 121
76 337 156 507 187 140 26 284 20 384 -16z m-2704 -1235 l0 -145 -100 3 c-149
4 -142 9 -150 -103 -4 -52 -4 -115 -1 -140 l7 -45 113 0 112 0 1 -138 1 -138
-88 4 c-120 6 -136 1 -145 -44 -3 -20 -3 -92 1 -160 l7 -124 127 0 c103 0 129
-3 133 -15 3 -8 7 -73 8 -146 l1 -132 -328 1 -329 1 0 718 c0 395 3 725 7 734
6 15 38 17 315 15 l308 -1 0 -145z m-992 125 c79 -20 131 -49 187 -101 56 -53
85 -114 101 -214 10 -66 9 -104 -8 -198 l-5 -32 -177 2 -176 3 -5 136 c-6 152
-13 172 -64 167 -59 -6 -60 -15 -60 -488 -1 -484 2 -510 57 -510 66 0 77 29
77 206 l0 134 -40 0 -41 0 3 108 3 107 220 0 220 0 0 -385 0 -385 -116 -3
-116 -3 -11 28 c-5 15 -13 36 -16 47 -5 16 -11 13 -47 -24 -82 -84 -159 -98
-286 -51 -166 62 -198 83 -232 149 -42 83 -46 136 -45 578 1 448 5 492 51 571
41 73 149 139 268 166 48 11 205 6 258 -8z m1882 -130 l0 -140 -107 0 c-59 0
-109 -3 -112 -6 -4 -3 -7 -269 -9 -590 l-2 -584 -190 0 -190 0 -2 505 c-1 278
-2 542 -2 588 l-1 82 -110 0 -110 0 0 145 0 145 418 -2 417 -3 0 -140z m-1870
-1505 c4 -6 18 -88 32 -183 56 -385 70 -471 76 -457 3 8 11 60 17 115 21 197
61 490 69 510 8 19 16 20 197 17 104 -1 214 -3 244 -5 l55 -2 2 -731 3 -731
-170 -2 -170 -1 -1 472 c-1 300 -5 453 -10 418 -5 -30 -29 -215 -54 -410 -25
-195 -51 -383 -56 -417 l-11 -63 -118 0 -118 0 -10 63 c-6 34 -14 98 -18 141
-3 44 -10 87 -15 95 -4 9 -24 142 -44 296 -20 154 -40 294 -45 310 -5 17 -9
-168 -9 -437 l-1 -468 -170 0 -170 0 0 733 c0 404 3 737 7 740 11 12 481 8
488 -3z m1511 -15 c19 -4 24 -19 44 -147 12 -78 26 -200 31 -271 5 -74 15
-143 24 -161 12 -26 32 -152 85 -538 4 -31 10 -60 13 -65 3 -4 12 -60 21 -123
9 -63 18 -127 21 -142 l4 -26 -187 0 c-103 0 -192 5 -198 10 -7 5 -15 50 -18
101 -12 156 -7 147 -85 147 l-67 0 -12 -122 c-6 -66 -15 -125 -20 -130 -5 -5
-95 -11 -201 -14 -166 -5 -191 -4 -191 10 0 8 6 45 14 83 8 37 17 100 21 138
3 39 12 108 20 155 7 47 16 123 20 170 3 47 10 121 15 165 5 44 14 123 21 175
6 52 21 142 34 200 13 58 24 132 24 165 1 33 7 96 14 140 l13 80 79 5 c84 6
425 2 461 -5z"/>
<path d="M4175 5364 c-166 -29 -428 -129 -520 -198 -44 -33 -59 -41 -51 -28
15 25 -6 10 -56 -41 -29 -28 -90 -85 -136 -126 -82 -73 -170 -176 -159 -187 3
-3 -27 -48 -67 -99 -90 -115 -128 -193 -156 -318 -26 -117 -85 -236 -124 -252
-32 -14 -171 -184 -198 -244 -36 -79 -11 -203 97 -481 50 -130 168 -368 203
-409 l29 -34 101 2 c55 1 115 6 133 11 18 5 34 8 36 6 2 -2 14 -48 28 -102 35
-145 79 -263 150 -404 35 -69 86 -173 115 -233 28 -59 55 -105 60 -102 4 3 6
13 4 23 -57 241 -114 571 -114 660 l0 43 55 -38 c49 -35 57 -46 89 -124 19
-47 42 -113 50 -146 25 -95 21 -257 -10 -426 -30 -162 -30 -287 1 -392 24 -84
35 -90 35 -20 0 76 52 272 91 345 86 161 91 175 103 303 l11 122 17 -55 c10
-30 21 -71 26 -90 8 -33 8 -32 21 35 7 39 11 107 8 152 -2 46 -3 83 -1 83 2 0
47 -11 101 -24 124 -31 335 -59 376 -51 36 8 170 47 327 95 182 56 387 148
483 216 l47 34 0 -25 c0 -14 -9 -34 -20 -45 -50 -50 -236 -152 -285 -156 -35
-3 -194 -59 -208 -73 -7 -7 -7 -22 -1 -43 8 -27 15 -34 42 -36 40 -4 131 29
190 69 24 16 73 43 107 58 35 16 85 44 110 61 26 18 48 30 50 28 6 -6 -20
-110 -33 -135 -7 -12 -12 -32 -12 -44 l0 -22 26 24 c34 32 97 140 133 229 15
39 33 76 38 81 6 6 16 -13 27 -54 10 -35 28 -87 41 -115 13 -27 29 -75 36
-106 20 -89 33 -81 25 15 -7 91 2 209 15 188 4 -7 13 -41 19 -75 10 -53 9 -76
-5 -146 -34 -172 -60 -190 -207 -138 -193 67 -256 72 -468 35 -191 -33 -315
-68 -427 -120 -147 -69 -225 -131 -289 -230 -57 -90 -74 -158 -73 -292 0 -93
3 -113 11 -93 47 109 87 187 135 258 30 46 57 81 59 79 3 -3 -2 -22 -10 -43
-27 -71 -46 -159 -51 -250 -3 -49 -13 -128 -21 -175 -16 -86 -16 -86 -56 -106
-38 -18 -40 -21 -24 -34 9 -8 24 -20 32 -28 13 -12 21 -12 51 3 66 31 99 65
146 150 85 153 197 251 383 337 244 113 472 166 666 156 98 -5 207 -32 232
-57 6 -6 -8 -28 -38 -60 -73 -78 -98 -142 -98 -253 0 -55 6 -108 14 -131 l15
-40 -1 85 c-1 72 3 90 24 129 34 60 114 121 267 205 96 52 144 86 193 135 74
73 90 110 90 207 0 80 -21 146 -87 280 -90 180 -198 303 -360 407 -40 25 -74
50 -77 55 -3 4 6 18 19 31 20 19 27 21 40 10 21 -18 64 -7 161 40 209 101 297
271 264 513 -18 129 -70 368 -90 414 -23 52 -70 113 -88 113 -7 0 -15 6 -18
14 -3 8 -18 18 -34 21 -25 6 -31 15 -54 90 -20 63 -33 89 -54 103 -18 13 -39
49 -61 103 -120 292 -281 587 -371 678 -91 92 -267 191 -386 216 -115 24 -210
20 -311 -15 -102 -35 -107 -36 -159 -11 -89 42 -237 52 -389 25z m661 -123
l210 -18 89 -52 c197 -117 318 -261 539 -643 l94 -163 -26 -8 c-43 -12 -80
-11 -98 3 -9 8 -36 48 -60 89 -56 97 -211 298 -290 377 -79 80 -199 152 -348
211 -67 26 -124 51 -127 56 -4 5 -19 10 -35 12 -16 1 -69 10 -118 19 -49 9
-106 16 -127 16 -21 0 -40 4 -43 8 -11 18 -240 -28 -416 -83 -251 -79 -394
-143 -570 -255 -169 -107 -325 -233 -390 -315 -17 -21 -30 -32 -30 -26 0 10
51 84 101 146 114 140 185 218 266 292 54 48 123 112 155 142 53 49 65 56 173
87 204 58 380 95 570 117 79 10 290 4 481 -12z m-47 -698 c23 -78 96 -259 161
-398 l42 -90 -44 -39 c-49 -44 -125 -83 -180 -92 -50 -9 -49 -24 2 -24 50 0
136 32 198 74 l48 32 53 -104 c29 -57 51 -105 49 -107 -2 -2 -50 -15 -108 -30
-180 -47 -254 -99 -274 -190 l-7 -30 26 30 c15 17 24 22 21 13 -7 -23 18 -165
37 -209 20 -45 21 -24 2 48 -8 31 -15 87 -15 124 0 63 2 69 31 93 17 14 34 26
38 26 4 0 7 -29 7 -64 0 -53 6 -76 35 -132 42 -84 74 -109 139 -109 39 0 55 6
86 31 63 51 76 75 82 153 4 62 6 69 18 54 7 -10 16 -44 20 -75 4 -36 11 -55
18 -52 11 4 60 -251 88 -455 l12 -85 -44 -38 c-76 -68 -320 -180 -584 -267
l-239 -80 -83 14 c-107 19 -409 119 -550 182 -120 54 -229 120 -293 178 l-41
37 1 157 c1 86 4 194 8 241 l6 85 17 -30 17 -30 2 65 2 65 13 -90 c15 -108 53
-287 63 -297 4 -4 12 29 20 75 7 45 16 86 20 90 4 4 28 3 52 -2 51 -12 133
-13 169 -1 16 5 -5 8 -62 8 -93 1 -158 20 -158 46 0 22 7 20 42 -9 45 -38 111
-35 174 8 41 26 52 41 67 85 9 29 18 81 19 117 3 134 31 20 30 -125 0 -57 2
-77 8 -60 4 14 8 70 9 124 1 98 1 99 21 81 29 -26 26 1 -5 47 -31 46 -108 84
-200 98 -38 6 -71 13 -74 15 -18 19 108 275 135 275 6 0 22 -8 35 -18 36 -28
128 -76 134 -70 12 12 -10 38 -71 88 l-64 52 30 38 c37 47 123 127 226 211
258 208 474 412 496 468 9 23 12 17 28 -64 10 -50 27 -123 39 -162z m-1681
-145 c-3 -7 -13 -36 -22 -65 -16 -47 -40 -82 -51 -71 -2 2 7 31 20 64 14 32
25 65 25 72 0 6 7 12 16 12 9 0 14 -6 12 -12z m2750 -130 c18 -33 30 -63 28
-66 -3 -2 -27 1 -54 8 -51 12 -87 2 -132 -35 -8 -7 -24 -14 -36 -17 -18 -5
-24 2 -38 49 -10 30 -16 57 -13 59 3 4 185 58 208 63 3 0 20 -27 37 -61z m38
-123 c57 -17 124 -79 149 -138 8 -20 29 -118 45 -217 54 -323 38 -452 -69
-559 -57 -58 -200 -138 -226 -127 -7 2 -27 33 -43 68 -64 135 -113 327 -133
520 -9 90 -7 116 10 207 17 88 26 109 56 147 37 45 81 81 125 101 33 15 29 15
86 -2z m-2866 -128 c0 -40 11 -137 25 -217 27 -159 31 -212 9 -135 -41 147
-72 447 -44 430 6 -3 10 -39 10 -78z m2578 28 c-6 -14 -13 -24 -14 -22 -6 6 9
47 17 47 5 0 3 -11 -3 -25z m-2689 -77 c1 -29 30 -160 88 -393 38 -153 86
-287 137 -380 18 -33 41 -83 50 -112 9 -28 24 -57 32 -64 24 -20 -2 -29 -82
-29 -87 0 -95 7 -158 143 -56 121 -191 484 -211 569 -28 120 -17 158 80 274
53 64 61 63 64 -8z m2656 -18 c-20 -82 -27 -233 -16 -340 15 -133 44 -240 96
-347 48 -102 47 -124 -2 -40 -92 154 -128 293 -128 492 0 129 2 146 29 218 15
43 30 76 32 75 2 -2 -3 -28 -11 -58z m-425 -280 c11 -11 20 -27 20 -35 0 -23
-37 -55 -65 -55 -28 0 -65 32 -65 55 0 23 37 55 65 55 14 0 34 -9 45 -20z
m-1210 -68 c46 -37 -3 -104 -64 -88 -40 10 -51 68 -18 94 23 17 56 15 82 -6z
m-853 -14 c-3 -8 -6 -5 -6 6 -1 11 2 17 5 13 3 -3 4 -12 1 -19z m1973 -992 c0
-10 -109 -66 -129 -66 -38 0 -22 15 47 42 69 27 82 31 82 24z"/>
<path d="M4810 3741 c-19 -11 -44 -29 -55 -42 l-20 -23 38 23 c21 13 54 31 75
42 26 12 31 18 17 18 -11 0 -36 -8 -55 -18z"/>
<path d="M3935 3731 c6 -5 28 -14 50 -21 22 -7 45 -16 50 -20 6 -4 18 -10 28
-13 31 -11 8 12 -31 32 -41 20 -112 37 -97 22z"/>
<path d="M5167 3400 c-38 -30 -92 -50 -172 -65 -59 -11 -64 -13 -30 -14 23 -1
68 6 100 15 33 9 85 23 115 30 30 7 51 13 46 13 -5 1 -3 7 3 14 25 31 -24 37
-62 7z"/>
<path d="M4666 2881 c-9 -14 -66 -23 -168 -26 -53 -2 -105 -8 -115 -14 -14 -9
10 -11 102 -8 101 2 127 6 163 25 23 12 42 25 42 27 0 8 -19 5 -24 -4z"/>
<path d="M4475 2770 c-4 -6 8 -10 29 -10 20 0 36 5 36 10 0 6 -13 10 -29 10
-17 0 -33 -4 -36 -10z"/>
<path d="M5824 4008 c-41 -10 -42 -12 -63 -83 -48 -160 -34 -314 39 -460 58
-114 80 -144 110 -144 64 -1 145 62 178 139 26 60 20 209 -12 305 -28 81 -95
214 -119 233 -20 17 -87 22 -133 10z m123 -70 c86 -91 140 -251 124 -374 -12
-98 -32 -140 -76 -161 -33 -16 -39 -16 -63 -3 -55 31 -105 193 -119 380 -6 86
-5 91 21 130 23 35 51 56 77 59 3 1 19 -14 36 -31z"/>
<path d="M5322 2805 c-33 -24 -239 -125 -253 -125 -9 0 -10 -3 -2 -11 8 -8 23
-5 56 9 53 24 171 93 207 121 29 24 24 28 -8 6z"/>
<path d="M3574 2744 c14 -139 11 -134 73 -134 40 0 54 3 50 13 -2 6 -14 39
-26 72 -17 47 -31 67 -63 89 l-41 30 7 -70z"/>
<path d="M5482 2722 c-59 -140 -140 -247 -172 -227 -16 10 -12 49 10 100 11
26 20 53 20 60 0 14 -145 -57 -241 -116 -53 -34 -151 -69 -189 -69 -15 0 -34
8 -42 18 -24 26 -32 80 -16 99 11 14 10 16 -7 11 -11 -3 -92 -27 -180 -53
-140 -41 -167 -46 -219 -40 l-59 6 26 -43 c14 -24 31 -71 37 -106 7 -34 14
-62 17 -62 2 0 27 12 55 26 118 60 275 104 508 144 166 29 245 23 406 -32 133
-44 167 -45 186 -3 13 28 -19 160 -57 236 -13 25 -26 62 -30 82 -4 21 -10 39
-14 41 -3 2 -21 -30 -39 -72z"/>
<path d="M5000 2650 c-8 -5 -10 -10 -5 -10 6 0 17 5 25 10 8 5 11 10 5 10 -5
0 -17 -5 -25 -10z"/>
<path d="M3976 2298 c-16 -129 -22 -329 -18 -603 l5 -295 29 0 c44 0 66 16 77
58 16 58 16 820 1 857 l-13 30 -9 -33 c-12 -44 -42 -40 -46 6 -5 49 -19 38
-26 -20z"/>
<path d="M2128 2220 c-4 -8 -12 -58 -18 -110 -7 -52 -19 -115 -26 -141 -8 -26
-14 -73 -13 -105 1 -33 -2 -94 -6 -136 l-7 -78 66 0 c66 0 66 0 66 28 0 16 -3
32 -7 36 -4 4 -6 44 -4 90 2 61 -2 92 -13 114 -11 20 -16 60 -17 114 -1 103
-13 208 -21 188z"/>
</g>
</svg>
